<svg xmlns="http://www.w3.org/2000/svg" width="70" height="70" viewBox="0 0 70 70">
    <g fill="#FE1204" fill-rule="evenodd">
        <path d="M38.97 22.742l10.086 6.846-10.087 6.845 1.31 1.814 12.762-8.66-12.763-8.66zM23.227 20.928l-12.763 8.66 12.763 8.66 1.31-1.815-10.088-6.845 10.087-6.846zM28.414 43.299l-2.074-.705 8.75-26.718 2.075.705z"/>
        <path d="M67.644 54.086H6.764v-4.5h54.37a2 2 0 0 0 2-2v-29.49h1.128a3.382 3.382 0 0 1 3.382 3.374v32.616zm0 3.373a3.382 3.382 0 0 1-3.382 3.374H10.147a3.382 3.382 0 0 1-3.383-3.374v-1.124h60.88v1.124zM23.675 67.582h27.058v-4.5H23.675v4.5zM2.255 47.337H60.88v-35.99H2.255v35.99zm0-38.238H60.88V2.35H2.255V9.1zm60.88 6.748V2.1a2 2 0 0 0-2-2H2a2 2 0 0 0-2 2v45.486a2 2 0 0 0 2 2h2.51v7.872c0 3.101 2.528 5.624 5.637 5.624H21.42v4.499h-4.51v2.249H57.498v-2.25h-4.51v-4.498h11.274c3.108 0 5.637-2.523 5.637-5.624V21.47c0-3.1-2.529-5.622-5.637-5.622h-1.128z"/>
        <path d="M4.51 6.85h2.254V4.6H4.51zM9.02 6.85h2.254V4.6H9.019zM13.529 6.85h2.255V4.6h-2.255z"/>
    </g>
</svg>
