<svg xmlns="http://www.w3.org/2000/svg" width="70" height="70" viewBox="0 0 70 70">
    <g fill="#FE1204" fill-rule="nonzero">
        <path d="M68.838 0H1.162C.462 0 0 .462 0 1.162v53.676C0 55.538.462 56 1.162 56H5.83v12.838c0 .7.462 1.162 1.162 1.162H63.01c.7 0 1.162-.462 1.162-1.162V56h4.667c.7 0 1.162-.462 1.162-1.162V1.162C70 .462 69.538 0 68.838 0zm-1.163 2.325v7.008H2.325V2.325h65.35zM61.846 28H8.171v-7.009h53.675V28zM8.154 67.675V30.342h53.675v37.35H8.154v-.017zm56.017-14V19.83c0-.7-.462-1.162-1.162-1.162H6.99c-.7 0-1.162.461-1.162 1.162v33.846H2.325V11.658h65.35v42.017h-3.504z"/>
        <path d="M4 4h4v3H4zM11 4h4v3h-4zM11 23h4v3h-4zM18 23h4v3h-4zM63 4h3v3h-3zM58 4h3v3h-3zM58 23h3v3h-3zM52 23h3v3h-3zM12.163 55h18.674c.701 0 1.163-.462 1.163-1.163V35.163c0-.701-.462-1.163-1.163-1.163H12.163c-.701 0-1.163.462-1.163 1.163v18.674c0 .701.462 1.163 1.163 1.163zm1.18-9.337h7.011v7.011h-7.011v-7.011zm9.337 7.011v-7.011h7.011v7.011H22.68zm6.994-9.337h-7.011v-7.011h7.011v7.011zm-9.337-7.011v7.011h-7.011v-7.011h7.011zM36 34h4v3h-4zM44 34h4v3h-4zM52 34h4v3h-4zM36 42h21v3H36zM36 47h21v3H36zM36 52h21v3H36zM11 59h3v3h-3zM16 59h3v3h-3zM21 59h3v3h-3zM26 59h32v3H26z"/>
    </g>
</svg>
