<svg xmlns="http://www.w3.org/2000/svg" width="70" height="75" viewBox="0 0 70 75">
    <g fill="#FE1204" fill-rule="nonzero">
        <path d="M65.923 0H25.22a3.593 3.593 0 0 0-3.595 3.595v11.97H3.66a3.593 3.593 0 0 0-3.595 3.596V59.88a3.593 3.593 0 0 0 3.595 3.595h17.963v7.19a3.593 3.593 0 0 0 3.595 3.596h40.704a3.593 3.593 0 0 0 3.596-3.595V3.596A3.593 3.593 0 0 0 65.923 0zM24.006 3.58c0-.657.54-1.198 1.198-1.198h40.72c.657 0 1.198.541 1.198 1.199v5.992H24.006V3.581zm0 8.39h43.116v45.513H31.197V19.16a3.593 3.593 0 0 0-3.596-3.596h-3.595V11.97zM2.463 19.16c0-.657.54-1.198 1.198-1.198h23.955c.658 0 1.198.541 1.198 1.199v3.595H2.463v-3.595zm0 5.993H28.8v28.734H2.463V25.153zM3.66 61.078c-.658 0-1.198-.54-1.198-1.198v-3.596H28.8v3.596c0 .657-.541 1.198-1.199 1.198H3.661zm63.475 9.573h-.014c0 .658-.541 1.199-1.199 1.199H25.22c-.658 0-1.198-.541-1.198-1.199v-7.19h3.595a3.593 3.593 0 0 0 3.595-3.596h35.925v10.786z"/>
        <path d="M12.036 19.161h7.191v2.397h-7.191zM7.242 19.161h2.397v2.397H7.242zM14.433 57.483h2.397v2.397h-2.397zM40.784 4.794h9.573v2.397h-9.573zM45.564 70.651a4.797 4.797 0 0 0 4.794-4.794 4.797 4.797 0 0 0-4.794-4.794 4.797 4.797 0 0 0-4.794 4.794c.014 2.646 2.163 4.794 4.794 4.794zm0-7.176a2.398 2.398 0 0 1 2.397 2.397 2.408 2.408 0 0 1-2.397 2.397 2.398 2.398 0 0 1-2.397-2.397c.014-1.33 1.081-2.397 2.397-2.397z"/>
    </g>
</svg>
