<svg xmlns="http://www.w3.org/2000/svg" width="70" height="70" viewBox="0 0 70 70">
    <g fill="#FE1204" fill-rule="nonzero">
        <path d="M67.667 37.333H2.333c-1.4 0-2.333.934-2.333 2.334v28C0 69.067.933 70 2.333 70h65.334c1.4 0 2.333-.933 2.333-2.333v-28c0-1.4-.933-2.334-2.333-2.334zm0 30.334H2.333v-28h65.334v28z"/>
        <path d="M4.667 42h4.667v2.333H4.667zM4.667 63h4.667v2.333H4.667zM11.667 63h4.667v2.333h-4.667zM18.667 63h32.667v2.333H18.667zM11.667 42h4.667v2.333h-4.667zM18.667 42h4.667v2.333h-4.667zM25.667 42h4.667v2.333h-4.667zM32.667 42h4.667v2.333h-4.667zM39.667 42h4.667v2.333h-4.667zM46.667 42h4.667v2.333h-4.667zM53.667 42h4.667v2.333h-4.667zM53.667 63h4.667v2.333h-4.667zM60.667 63h4.667v2.333h-4.667zM60.667 42h4.667v2.333h-4.667zM5.833 47.833h2.333v2.333H5.833zM10.5 47.833h2.333v2.333H10.5zM15.167 47.833H17.5v2.333h-2.333zM19.833 47.833h2.333v2.333h-2.333zM24.5 47.833h2.333v2.333H24.5zM29.167 47.833H31.5v2.333h-2.333zM33.833 47.833h2.333v2.333h-2.333zM38.5 47.833h2.333v2.333H38.5zM43.167 47.833H45.5v2.333h-2.333zM47.833 47.833h2.333v2.333h-2.333zM52.5 47.833h2.333v2.333H52.5zM57.167 47.833H59.5v2.333h-2.333zM61.833 47.833h2.333v2.333h-2.333zM5.833 52.5h2.333v2.333H5.833zM10.5 52.5h2.333v2.333H10.5zM15.167 52.5H17.5v2.333h-2.333zM19.833 52.5h2.333v2.333h-2.333zM24.5 52.5h2.333v2.333H24.5zM29.167 52.5H31.5v2.333h-2.333zM33.833 52.5h2.333v2.333h-2.333zM38.5 52.5h2.333v2.333H38.5zM43.167 52.5H45.5v2.333h-2.333zM47.833 52.5h2.333v2.333h-2.333zM52.5 52.5h2.333v2.333H52.5zM5.833 57.167h2.333V59.5H5.833zM10.5 57.167h2.333V59.5H10.5zM15.167 57.167H17.5V59.5h-2.333zM19.833 57.167h2.333V59.5h-2.333zM24.5 57.167h2.333V59.5H24.5zM29.167 57.167H31.5V59.5h-2.333zM33.833 57.167h2.333V59.5h-2.333zM38.5 57.167h2.333V59.5H38.5zM43.167 57.167H45.5V59.5h-2.333zM47.833 57.167h2.333V59.5h-2.333zM52.5 57.167h2.333V59.5H52.5zM57.167 59.5H63c.7 0 1.167-.467 1.167-1.167V52.5h-2.334v4.667h-4.666V59.5zM57.167 52.5H59.5v2.333h-2.333zM68.833 0H1.167C.467 0 0 .467 0 1.167v32.666h2.333V11.667h65.334v22.166H70V1.167C70 .467 69.533 0 68.833 0zm-66.5 9.333v-7h65.334v7H2.333z"/>
        <path d="M4.667 4.667H7V7H4.667zM9.333 4.667h2.333V7H9.333zM14 4.667h2.333V7H14zM14 14h2.333v19.833H14zM5.833 15.167H10.5V17.5H5.833zM5.833 22.167H10.5V24.5H5.833zM5.833 29.167H10.5V31.5H5.833zM19.833 15.167H24.5V17.5h-4.667zM26.833 15.167H45.5V17.5H26.833zM47.833 15.167H52.5V17.5h-4.667zM54.833 15.167h9.333V17.5h-9.333zM19.833 22.167h16.333V24.5H19.833zM31.5 29.167h4.667V31.5H31.5zM19.833 29.167h9.333V31.5h-9.333zM44.683 22.517l-3.5 3.5a1.128 1.128 0 0 0 0 1.633l3.5 3.5 1.634-1.633-2.684-2.684 2.684-2.683-1.634-1.633zM57.983 31.15l3.5-3.5a1.128 1.128 0 0 0 0-1.633l-3.5-3.5-1.633 1.633 2.683 2.683-2.683 2.684 1.633 1.633zM47.961 30.954l4.643-9.287 2.087 1.043-4.643 9.287z"/>
    </g>
</svg>
